<svg version="1.1" class="clearos-svg clearfoundation app-vendor-clearfoundation app-free app-category-network app-sub-category-infrastructure" viewBox="0 0 400 400" preserveAspectRatio="xMinYMin" xmlns="http://www.w3.org/2000/svg" xmlns:xlink= "http://www.w3.org/1999/xlink">
<path fill="#AA0707" d="M91.666,184.647"/>
<path fill="#AA0707" d="M123.245,247.805"/>
<path fill="#AA0707" d="M91.666,184.647"/>
<path fill="#AA0707" d="M123.245,247.805"/>
<g>
	<path fill="#686868" d="M344.524,240.099h-1.061c-0.017,0-0.032,0-0.032,0H163.56c-14.093,0-25.534,11.426-25.534,25.551v114.889
		c-14.092,0-25.561-11.395-25.561-25.469V240.099c0-14.143,11.451-25.56,25.561-25.56H343.45c4.238,0,8.162,1.134,11.674,2.896
		c-3.975-16.882-19.076-29.5-37.225-29.5h-77.928c-5.301-14.854-19.31-25.551-35.959-25.551h-77.729
		c-21.163,0-38.318,17.139-38.318,38.318v25.564v133.069c0,21.163,17.14,38.318,38.318,38.318h38.342h39.37h23.423l14.888-0.018
		h75.575h26.646c14.106,0,25.532-11.442,25.532-25.552V265.666C370.06,251.524,358.634,240.099,344.524,240.099z M165.132,379.511
		c0-1.854,0.018-24.839,0.033-26.595c0.753-37.604,9.041-41.397,20.839-41.397h3.313v-14.092
		c-6.766-4.803-11.212-12.65-11.212-21.478c0-14.589,11.822-26.396,26.388-26.396c14.496,0,26.369,11.79,26.369,26.396
		c0,8.876-4.471,16.725-11.228,21.478v14.092h2.642c12.098,0,18.986,2.354,19.449,41.861c0.032,1.59,0.032,24.441,0.032,26.098
		L165.132,379.511L165.132,379.511z M254.56,379.511c0-1.854,0.019-24.839,0.051-26.595c0.729-37.604,9.023-41.397,20.83-41.397
		h3.313v-14.092c-6.739-4.803-11.228-12.65-11.228-21.478c0-14.589,11.822-26.396,26.396-26.396
		c14.474,0,26.313,11.79,26.313,26.396c0,8.876-4.405,16.725-11.277,21.478v14.092h2.684c12.071,0,19.011,2.354,19.475,41.861
		c0.031,1.59,0.031,24.441,0.031,26.098L254.56,379.511L254.56,379.511z"/>
	<path fill="#686868" d="M286.567,87.316l10.863-18.704c-156.153-149.099-267.489,0-267.489,0l9.373,18.704
		C162.407-41.655,286.567,87.316,286.567,87.316z"/>
	<path fill="#686868" d="M259.544,125.659l8.445-14.588c-121.81-116.287-208.646,0-208.646,0l7.36,14.588
		C162.706,25.07,259.544,125.659,259.544,125.659z"/>
	<path fill="#686868" d="M88.339,151.839l5.29,10.532c69.351-72.678,139.321,0,139.321,0l6.127-10.532
		C151.04,67.818,88.339,151.839,88.339,151.839z"/>
</g>
</svg>
